<?xml version="1.0" standalone="no"?>
<!DOCTYPE svg PUBLIC "-//W3C//DTD SVG 20010904//EN"
 "http://www.w3.org/TR/2001/REC-SVG-20010904/DTD/svg10.dtd">
<svg version="1.0" xmlns="http://www.w3.org/2000/svg"
 width="500.000000pt" height="500.000000pt" viewBox="0 0 500.000000 500.000000"
 preserveAspectRatio="xMidYMid meet">
<metadata>
Created by potrace 1.14, written by Peter Selinger 2001-2017
</metadata>
<g transform="translate(0.000000,500.000000) scale(0.100000,-0.100000)"
fill="#000000" stroke="none">
<path d="M2732 4706 c-29 -7 -71 -21 -92 -31 -39 -17 -42 -17 -101 0 -59 18
-219 25 -279 12 -164 -35 -316 -89 -415 -150 -192 -118 -329 -236 -485 -417
-226 -264 -439 -642 -515 -915 -9 -33 -20 -71 -25 -85 -5 -14 -12 -36 -14 -50
-3 -14 -16 -79 -30 -145 -50 -239 -65 -389 -41 -422 11 -15 14 -14 30 10 9 14
39 90 65 169 27 79 56 159 64 178 l16 35 -7 -55 c-3 -30 -7 -154 -8 -275 -2
-121 -7 -245 -11 -275 -14 -96 -10 -228 11 -345 17 -93 87 -253 130 -298 74
-77 113 -88 106 -29 -1 6 0 12 2 12 9 0 75 -118 87 -155 7 -22 22 -57 32 -79
11 -21 16 -41 11 -45 -16 -12 -83 -100 -83 -109 0 -6 -4 -12 -9 -14 -13 -4
-113 -154 -151 -224 -23 -43 -30 -67 -26 -88 5 -22 -1 -41 -23 -75 -64 -102
-131 -267 -195 -481 -40 -137 -87 -340 -81 -350 4 -6 630 -10 1681 -10 l1675
0 -7 48 c-3 26 -8 49 -9 52 -2 3 -6 26 -10 50 -3 25 -8 52 -10 60 -2 8 -7 31
-10 50 -32 193 -131 534 -186 643 -6 10 -6 24 -1 34 10 17 5 42 -28 153 -7 25
-17 50 -20 55 -4 6 -10 21 -13 35 -7 29 -105 202 -120 212 -6 3 15 50 53 115
42 74 60 98 56 76 -7 -43 15 -61 49 -39 21 14 96 150 132 241 57 144 89 307
92 470 1 55 6 116 11 135 19 73 22 109 22 260 l1 155 24 -75 c26 -82 48 -114
62 -91 14 22 4 289 -14 391 -10 52 -19 109 -21 125 -2 17 -6 37 -9 45 -3 8 8
-1 24 -20 30 -35 101 -166 101 -186 0 -6 11 -21 25 -34 l24 -23 29 31 c32 34
76 155 87 237 3 27 8 51 10 53 2 2 11 -23 20 -55 22 -75 45 -123 60 -123 18 0
40 31 53 74 11 40 10 187 -2 240 -47 201 -190 348 -371 381 l-60 11 -2 44 c-3
48 -22 120 -32 120 -3 0 -12 12 -19 28 -31 69 -123 139 -165 126 -33 -10 -57
-34 -57 -58 0 -20 0 -20 -16 2 -8 12 -21 32 -27 45 -33 63 -188 265 -254 332
-96 97 -157 142 -263 193 -176 85 -397 122 -528 88z"/>
</g>
</svg>
